<svg xmlns="http://www.w3.org/2000/svg" width="24" height="24" viewBox="0 0 24 24" fill="none">
  <path d="M2.12727 12.1451C0.733267 10.8766 0 9.25486 0 7.42857C0 3.40229 3.893 0 8.5 0C13.107 0 17 3.40229 17 7.42857C17 11.5223 13.2838 14.9806 8.88533 14.9806C7.77693 14.9806 6.69007 14.7623 5.65193 14.3303L1.33167 15.9634C1.26593 15.9874 1.19907 16 1.1322 16C0.974667 16 0.820534 15.9337 0.7106 15.8114C0.554199 15.6366 0.521332 15.3829 0.624466 15.1726L2.12727 12.1451Z" fill="#66C786"/>
  <path d="M22.123 20.627C23.353 19.517 24 18.098 24 16.5C24 12.977 20.565 10 16.5 10C12.435 10 9 12.977 9 16.5C9 20.082 12.279 23.108 16.16 23.108C17.138 23.108 18.097 22.917 19.013 22.539L22.825 23.968C22.883 23.989 22.942 24 23.001 24C23.14 24 23.276 23.942 23.373 23.835C23.511 23.682 23.54 23.46 23.449 23.276L22.123 20.627Z" fill="#3380A5"/>
</svg>