<svg width="54" height="73" viewBox="0 0 54 73" fill="none" xmlns="http://www.w3.org/2000/svg">
<path fill-rule="evenodd" clip-rule="evenodd" d="M50.49 6H3.508C1.569 6 0 7.58687 0 9.54747V69.4535C0 69.8192 0.055 70.1747 0.157 70.5061C0.328 71.0626 0.632 71.5586 1.03 71.9616C1.107 72.0384 1.191 72.1182 1.28 72.1889C1.797 72.6232 2.443 72.9061 3.148 72.9808C3.268 72.9929 3.388 73 3.508 73H50.49C52.429 73 54 71.4111 54 69.4535V9.54747C54 7.58687 52.429 6 50.49 6Z" fill="#4F4F4F"/>
<path fill-rule="evenodd" clip-rule="evenodd" d="M5 20.7714V65.1195C5 66.7103 6.25076 68 7.79428 68H45.2073C46.7492 68 48 66.7103 48 65.1195V13.8805C48 12.2897 46.7492 11 45.2073 11H15.3519L5 20.7714Z" fill="white"/>
<path fill-rule="evenodd" clip-rule="evenodd" d="M15.3519 11V17.8052C15.3519 19.4437 14.0204 20.7714 12.3773 20.7714H5L15.3519 11Z" fill="#C9C9C9"/>
<path fill-rule="evenodd" clip-rule="evenodd" d="M20.1296 32.9857H38.4445V31.3571H20.1296V32.9857Z" fill="#A0A0A0"/>
<path fill-rule="evenodd" clip-rule="evenodd" d="M20.1296 38.6857H38.4445V37.0571H20.1296V38.6857Z" fill="#A0A0A0"/>
<path fill-rule="evenodd" clip-rule="evenodd" d="M20.1296 43.5714H38.4445V41.9429H20.1296V43.5714Z" fill="#A0A0A0"/>
<path fill-rule="evenodd" clip-rule="evenodd" d="M20.1296 49.2714H38.4445V47.6429H20.1296V49.2714Z" fill="#A0A0A0"/>
<path fill-rule="evenodd" clip-rule="evenodd" d="M18.537 29.7324H17.6944H15.3982H14.5555V30.6217V32.9144V33.8038H15.3982H17.6944H18.537V32.9144V30.6217V29.7324ZM15.3982 32.9144H17.6944V30.6217H15.3982V32.9144Z" fill="#A0A0A0"/>
<path fill-rule="evenodd" clip-rule="evenodd" d="M18.537 35.2951H17.6944H15.3982H14.5555V36.1847V38.477V39.3666H15.3982H17.6944H18.537V38.477V36.1847V35.2951ZM15.3982 38.4771H17.6944V36.1847H15.3982V38.4771Z" fill="#A0A0A0"/>
<path fill-rule="evenodd" clip-rule="evenodd" d="M18.537 40.858H17.6944H15.3982H14.5555V41.7478V44.0397V44.9295H15.3982H17.6944H18.537V44.0397V41.7478V40.858ZM15.3982 44.0397H17.6944V41.7477H15.3982V44.0397Z" fill="#A0A0A0"/>
<path fill-rule="evenodd" clip-rule="evenodd" d="M18.537 46.4216H17.6944H15.3982H14.5555V47.3112V49.6035V50.4931H15.3982H17.6944H18.537V49.6035V47.3112V46.4216ZM15.3982 49.6035H17.6944V47.3112H15.3982V49.6035Z" fill="#A0A0A0"/>
<path d="M15.7844 31.1704L17.5536 28.1L18.5371 29.1241L15.8427 33.8L13.7593 30.5983L14.6956 29.4972L15.7844 31.1704Z" fill="#262626"/>
<path d="M17.3552 32.9857L18.5371 33.8798L15.8661 38.6857L13.7593 35.329L14.8957 34.3581L15.7956 35.7919L17.3552 32.9857Z" fill="#262626"/>
<path fill-rule="evenodd" clip-rule="evenodd" d="M27.5015 8.29216C26.8902 8.29216 26.3957 7.78122 26.3957 7.14709C26.3957 6.51296 26.8902 5.99899 27.5015 5.99899C28.1098 5.99899 28.6062 6.51296 28.6062 7.14709C28.6062 7.78122 28.1098 8.29216 27.5015 8.29216ZM34.3276 3.60384H30.2142V2.81521C30.2142 1.26018 28.9985 0 27.5015 0C25.9996 0 24.7868 1.26018 24.7868 2.81521V3.60384H20.6734C18.6459 3.60384 17 5.31134 17 7.41569V12H38V7.41569C38 5.31134 36.355 3.60384 34.3276 3.60384Z" fill="#262626"/>
</svg>
