<svg width="56" height="60" viewBox="0 0 56 60" fill="none" xmlns="http://www.w3.org/2000/svg">
<path fill-rule="evenodd" clip-rule="evenodd" d="M0.874322 31.2189L0 23.1296L26.7228 0.52289C27.4289 -0.174297 28.5721 -0.174297 29.2792 0.52289L56 23.1296L55 33L28 49L0.874322 31.2189Z" fill="#004367"/>
<path fill-rule="evenodd" clip-rule="evenodd" d="M50.4429 47H5.55914C5.24964 47 5 46.7504 5 46.4487V16.5523C5 16.2476 5.24964 16 5.55914 16H50.4429C50.7504 16 51 16.2476 51 16.5523V46.4487C51 46.7504 50.7504 47 50.4429 47Z" fill="#F1F1F1"/>
<path fill-rule="evenodd" clip-rule="evenodd" d="M14 29H42V27H14V29Z" fill="#6A6A6A"/>
<path fill-rule="evenodd" clip-rule="evenodd" d="M14 34H42V32H14V34Z" fill="#6A6A6A"/>
<path fill-rule="evenodd" clip-rule="evenodd" d="M14 39H42V37H14V39Z" fill="#6A6A6A"/>
<path fill-rule="evenodd" clip-rule="evenodd" d="M14 44H42V42H14V44Z" fill="#6A6A6A"/>
<path fill-rule="evenodd" clip-rule="evenodd" d="M2.08217 60H46.9797C48.1306 60 0 23 0 23V57.904C0 59.0606 0.932208 60 2.08217 60Z" fill="#66A3C4"/>
<path fill-rule="evenodd" clip-rule="evenodd" d="M53.9178 60H9.02028C7.87032 60 56 23 56 23V57.904C56 59.0606 55.0678 60 53.9178 60Z" fill="#66A3C4"/>
</svg>
