<svg width="24" height="24" viewBox="0 0 24 24" fill="none" xmlns="http://www.w3.org/2000/svg">
<path fill-rule="evenodd" clip-rule="evenodd" d="M0.857143 13H23.1429C23.6162 13 24 13.4104 24 13.9167V23.0833C24 23.5896 23.6162 24 23.1429 24H0.857143C0.383756 24 0 23.5896 0 23.0833V13.9167C0 13.4104 0.383756 13 0.857143 13Z" fill="#99C4DD"/>
<path fill-rule="evenodd" clip-rule="evenodd" d="M8 11.9721L19.9721 0L24 4.02789L12.0279 16L8 11.9721Z" fill="#A32A17"/>
<path fill-rule="evenodd" clip-rule="evenodd" d="M6 18L7.97523 12L12 16.0248L6 18Z" fill="#FFD799"/>
<path fill-rule="evenodd" clip-rule="evenodd" d="M6 18L6.65841 16L8 17.3416L6 18Z" fill="#262626"/>
<path fill-rule="evenodd" clip-rule="evenodd" d="M19.9877 0L24 4.01235L22.0123 6L18 1.98765L19.9877 0Z" fill="#D05C4A"/>
</svg>
